<svg width="120" height="74" viewBox="0 0 120 74" fill="none" xmlns="http://www.w3.org/2000/svg">
<g clip-path="url(#clip0_58_390)">
<path d="M5.87794 68.0966C5.92816 69.971 6.24217 71.8289 6.81071 73.6157C6.82332 73.6572 6.83731 73.698 6.85092 73.7395H10.3316C10.3279 73.7023 10.3241 73.6608 10.3205 73.6157C10.0884 70.9477 11.4142 54.9031 13.014 52.1263C12.8739 52.3515 5.60807 59.6192 5.87794 68.0966Z" fill="#00E8B7"/>
<path d="M6.13952 73.6157C6.16863 73.6572 6.19889 73.6987 6.22989 73.7395H8.84115C8.82136 73.7042 8.79842 73.6627 8.77183 73.6157C8.34048 72.8372 7.06372 70.5096 5.87859 68.0966C4.60548 65.5035 3.43649 62.8121 3.53494 61.8379C3.50443 62.0575 2.62309 68.7551 6.13952 73.6157Z" fill="#00E8B7"/>
<path d="M82.0957 15.1988C82.1953 15.4452 82.3478 15.6667 82.5423 15.8479C82.7368 16.029 82.9687 16.1652 83.2215 16.247C83.4744 16.3289 83.7421 16.3542 84.0059 16.3214C84.2696 16.2885 84.5229 16.1983 84.748 16.0569L89.7875 20.0993L90.0994 16.7566L85.266 13.4304C85.0035 13.068 84.6172 12.8146 84.1803 12.718C83.7434 12.6214 83.2862 12.6885 82.8954 12.9065C82.5046 13.1244 82.2074 13.4782 82.06 13.9007C81.9126 14.3232 81.9253 14.785 82.0957 15.1988Z" fill="#9F616A"/>
<path d="M89.8996 16.4428L88.0187 15.1138L85.8853 17.5787L88.3669 19.0495L89.8996 16.4428Z" fill="#FF961A"/>
<path d="M89.4879 15.5415L95.8265 17.9804L101.929 13.9849C102.559 13.572 103.318 13.4026 104.065 13.5085C104.811 13.6144 105.493 13.9883 105.984 14.5604C106.475 15.1325 106.741 15.8637 106.732 16.6174C106.723 17.3711 106.44 18.0959 105.936 18.6564L105.882 18.717L96.4968 23.7487L86.2456 19.0655L89.4879 15.5415Z" fill="#3F3D56"/>
<path d="M87.7008 73.4874H21.6504L24.0453 26.7227H34.3815L43.9127 33.4034H90.0958L87.7008 73.4874Z" fill="#81819E"/>
<path d="M71.5324 59.2264L33.3561 43.5044C33.2227 43.4492 33.1165 43.3434 33.061 43.2101C33.0054 43.0768 33.0051 42.9269 33.0599 42.7933L50.3583 0.789377C50.4134 0.655912 50.5193 0.549771 50.6526 0.494237C50.7859 0.438702 50.9357 0.43831 51.0693 0.493148L89.2456 16.2152C89.3791 16.2703 89.4852 16.3762 89.5407 16.5095C89.5963 16.6428 89.5967 16.7927 89.5418 16.9262L72.2434 58.9302C72.1883 59.0637 72.0825 59.1698 71.9492 59.2253C71.8158 59.2809 71.666 59.2813 71.5324 59.2264Z" fill="white"/>
<path d="M71.5324 59.2264L33.3561 43.5044C33.2227 43.4492 33.1165 43.3434 33.061 43.2101C33.0054 43.0768 33.0051 42.9269 33.0599 42.7933L50.3583 0.789377C50.4134 0.655912 50.5193 0.549771 50.6526 0.494237C50.7859 0.438702 50.9357 0.43831 51.0693 0.493148L89.2456 16.2152C89.3791 16.2703 89.4852 16.3762 89.5407 16.5095C89.5963 16.6428 89.5967 16.7927 89.5418 16.9262L72.2434 58.9302C72.1883 59.0637 72.0825 59.1698 71.9492 59.2253C71.8158 59.2809 71.666 59.2813 71.5324 59.2264ZM50.9864 0.694606C50.9062 0.661699 50.8163 0.661931 50.7363 0.695253C50.6563 0.728574 50.5928 0.792261 50.5597 0.872344L33.2613 42.8763C33.2284 42.9564 33.2287 43.0464 33.262 43.1264C33.2953 43.2063 33.359 43.2698 33.4391 43.3029L71.6153 59.025C71.6955 59.0579 71.7854 59.0576 71.8654 59.0243C71.9454 58.991 72.0089 58.9273 72.042 58.8472L89.3404 16.8433C89.3733 16.7631 89.373 16.6732 89.3397 16.5932C89.3064 16.5132 89.2427 16.4497 89.1626 16.4166L50.9864 0.694606Z" fill="#3F3D56"/>
<path d="M61.7685 21.2857L52.3 17.3863C52.1665 17.3311 52.0604 17.2253 52.0048 17.092C51.9493 16.9587 51.9489 16.8088 52.0037 16.6752L55.9031 7.20672C55.9583 7.07326 56.0641 6.96711 56.1974 6.91158C56.3307 6.85605 56.4806 6.85565 56.6142 6.91049L66.0827 10.8099C66.2162 10.865 66.3223 10.9709 66.3779 11.1042C66.4334 11.2375 66.4338 11.3874 66.3789 11.5209L62.4795 20.9895C62.4244 21.1229 62.3186 21.2291 62.1853 21.2846C62.052 21.3401 61.9021 21.3405 61.7685 21.2857ZM56.5312 7.11195C56.4511 7.07904 56.3611 7.07927 56.2812 7.1126C56.2012 7.14592 56.1377 7.2096 56.1046 7.28969L52.2052 16.7582C52.1723 16.8384 52.1725 16.9283 52.2058 17.0083C52.2392 17.0883 52.3029 17.1518 52.3829 17.1848L61.8515 21.0842C61.9316 21.1171 62.0215 21.1169 62.1015 21.0836C62.1815 21.0503 62.245 20.9866 62.2781 20.9065L66.1775 11.438C66.2104 11.3578 66.2102 11.2679 66.1768 11.1879C66.1435 11.1079 66.0798 11.0444 65.9998 11.0113L56.5312 7.11195Z" fill="#F2F2F2"/>
<path d="M58.5717 21.324L49.1032 17.4246C48.9831 17.375 48.8875 17.2798 48.8375 17.1598C48.7876 17.0398 48.7872 16.9049 48.8366 16.7847L52.736 7.31618C52.7856 7.19605 52.8808 7.10052 53.0008 7.05054C53.1208 7.00056 53.2557 7.00021 53.3759 7.04957L62.8444 10.949C62.9646 10.9986 63.0601 11.0938 63.1101 11.2138C63.1601 11.3338 63.1604 11.4687 63.111 11.5889L59.2117 21.0574C59.162 21.1776 59.0668 21.2731 58.9468 21.3231C58.8268 21.3731 58.6919 21.3734 58.5717 21.324Z" fill="#FF961A"/>
<path d="M76.8094 34.2542L47.1951 22.0582C47.1356 22.0337 47.0815 21.9977 47.0359 21.9522C46.9903 21.9068 46.9541 21.8528 46.9293 21.7934C46.9045 21.734 46.8917 21.6703 46.8916 21.6059C46.8915 21.5415 46.904 21.4777 46.9285 21.4182C46.9531 21.3587 46.9891 21.3046 47.0345 21.259C47.0799 21.2134 47.1339 21.1771 47.1933 21.1524C47.2527 21.1276 47.3164 21.1148 47.3808 21.1147C47.4452 21.1146 47.509 21.1271 47.5685 21.1516L77.1828 33.3476C77.303 33.3971 77.3986 33.4923 77.4486 33.6124C77.4986 33.7324 77.4989 33.8673 77.4494 33.9875C77.3999 34.1078 77.3046 34.2034 77.1846 34.2534C77.0646 34.3034 76.9297 34.3037 76.8094 34.2542Z" fill="#CCCCCC"/>
<path d="M68.3716 34.4315L45.909 25.1808C45.8495 25.1563 45.7954 25.1203 45.7498 25.0748C45.7041 25.0294 45.6679 24.9754 45.6432 24.916C45.6184 24.8566 45.6056 24.7929 45.6055 24.7285C45.6053 24.6641 45.6179 24.6003 45.6424 24.5408C45.6669 24.4813 45.7029 24.4272 45.7483 24.3816C45.7938 24.336 45.8477 24.2997 45.9072 24.275C45.9666 24.2502 46.0303 24.2374 46.0947 24.2373C46.1591 24.2371 46.2228 24.2497 46.2824 24.2742L68.7449 33.5249C68.8651 33.5744 68.9607 33.6697 69.0107 33.7897C69.0607 33.9097 69.061 34.0446 69.0115 34.1649C68.962 34.2851 68.8668 34.3807 68.7467 34.4307C68.6267 34.4807 68.4918 34.481 68.3716 34.4315Z" fill="#CCCCCC"/>
<path d="M81.4378 22.7296L68.3431 17.3368C68.2836 17.3123 68.2294 17.2763 68.1838 17.2309C68.1382 17.1854 68.102 17.1315 68.0772 17.072C68.0525 17.0126 68.0397 16.9489 68.0396 16.8845C68.0394 16.8201 68.052 16.7564 68.0765 16.6968C68.101 16.6373 68.137 16.5832 68.1824 16.5376C68.2279 16.492 68.2818 16.4558 68.3412 16.431C68.4007 16.4062 68.4644 16.3934 68.5288 16.3933C68.5931 16.3932 68.6569 16.4057 68.7164 16.4302L81.8112 21.823C81.9314 21.8725 82.027 21.9678 82.077 22.0878C82.127 22.2078 82.1273 22.3428 82.0778 22.463C82.0283 22.5832 81.933 22.6788 81.813 22.7288C81.693 22.7788 81.5581 22.7791 81.4378 22.7296Z" fill="#CCCCCC"/>
<path d="M76.8837 24.5063L67.057 20.4594C66.9367 20.4099 66.8411 20.3146 66.7911 20.1946C66.7411 20.0746 66.7408 19.9397 66.7903 19.8194C66.8399 19.6992 66.9351 19.6036 67.0551 19.5536C67.1751 19.5036 67.3101 19.5033 67.4303 19.5528L77.2571 23.5998C77.3773 23.6493 77.4729 23.7445 77.5229 23.8645C77.5729 23.9845 77.5732 24.1195 77.5237 24.2397C77.4741 24.3599 77.3789 24.4556 77.2589 24.5056C77.1389 24.5556 77.0039 24.5558 76.8837 24.5063Z" fill="#CCCCCC"/>
<path d="M74.2376 40.4994L44.6234 28.3034C44.5638 28.2789 44.5097 28.2429 44.4641 28.1974C44.4185 28.152 44.3823 28.098 44.3575 28.0386C44.3328 27.9792 44.32 27.9155 44.3198 27.8511C44.3197 27.7867 44.3322 27.7229 44.3568 27.6634C44.3813 27.6039 44.4173 27.5498 44.4627 27.5042C44.5081 27.4586 44.5621 27.4223 44.6215 27.3976C44.6809 27.3728 44.7447 27.36 44.809 27.3599C44.8734 27.3597 44.9372 27.3723 44.9967 27.3968L74.611 39.5928C74.7312 39.6423 74.8268 39.7375 74.8768 39.8576C74.9268 39.9776 74.9271 40.1125 74.8776 40.2327C74.8281 40.353 74.7329 40.4486 74.6128 40.4986C74.4928 40.5486 74.3579 40.5489 74.2376 40.4994Z" fill="#CCCCCC"/>
<path d="M65.7998 40.6767L43.3372 31.426C43.2777 31.4014 43.2236 31.3654 43.178 31.32C43.1324 31.2746 43.0961 31.2206 43.0714 31.1612C43.0466 31.1018 43.0338 31.0381 43.0337 30.9737C43.0336 30.9093 43.0461 30.8455 43.0706 30.786C43.0951 30.7265 43.1311 30.6724 43.1766 30.6268C43.222 30.5811 43.276 30.5449 43.3354 30.5202C43.3948 30.4954 43.4585 30.4826 43.5229 30.4825C43.5873 30.4823 43.651 30.4949 43.7106 30.5194L66.1731 39.7701C66.2326 39.7946 66.2868 39.8306 66.3324 39.876C66.378 39.9215 66.4142 39.9754 66.439 40.0349C66.4637 40.0943 66.4765 40.158 66.4767 40.2224C66.4768 40.2868 66.4642 40.3505 66.4397 40.4101C66.4152 40.4696 66.3792 40.5237 66.3338 40.5693C66.2884 40.6149 66.2344 40.6511 66.175 40.6759C66.1155 40.7006 66.0518 40.7135 65.9874 40.7136C65.9231 40.7137 65.8593 40.7012 65.7998 40.6767Z" fill="#CCCCCC"/>
<path d="M71.6654 46.7445L42.0511 34.5486C41.9309 34.4991 41.8353 34.4038 41.7853 34.2838C41.7353 34.1638 41.735 34.0288 41.7845 33.9086C41.834 33.7884 41.9292 33.6928 42.0493 33.6428C42.1693 33.5928 42.3042 33.5925 42.4244 33.642L72.0387 45.838C72.1589 45.8875 72.2546 45.9827 72.3046 46.1027C72.3546 46.2228 72.3548 46.3577 72.3053 46.4779C72.2558 46.5982 72.1606 46.6938 72.0406 46.7438C71.9206 46.7938 71.7856 46.7941 71.6654 46.7445Z" fill="#CCCCCC"/>
<path d="M70.3797 49.8671L40.7655 37.6711C40.6452 37.6216 40.5496 37.5264 40.4996 37.4064C40.4496 37.2864 40.4493 37.1514 40.4988 37.0312C40.5484 36.911 40.6436 36.8154 40.7636 36.7654C40.8836 36.7154 41.0186 36.7151 41.1388 36.7646L70.7531 48.9606C70.8126 48.9851 70.8667 49.0211 70.9123 49.0665C70.958 49.112 70.9942 49.1659 71.0189 49.2253C71.0437 49.2848 71.0565 49.3485 71.0566 49.4129C71.0568 49.4772 71.0442 49.541 71.0197 49.6005C70.9952 49.6601 70.9592 49.7142 70.9138 49.7598C70.8683 49.8054 70.8144 49.8416 70.7549 49.8664C70.6955 49.8911 70.6318 49.9039 70.5674 49.9041C70.503 49.9042 70.4393 49.8916 70.3797 49.8671Z" fill="#CCCCCC"/>
<path d="M55.9324 49.6352C56.5251 49.6665 57.1194 49.6484 57.709 49.581C58.24 49.5189 58.7932 49.4334 59.2586 49.1543C59.4599 49.0394 59.6313 48.8788 59.7588 48.6852C59.8863 48.4917 59.9663 48.2708 59.9924 48.0406C60.0129 47.8215 59.9632 47.6016 59.8505 47.4127C59.7377 47.2238 59.5678 47.0756 59.3653 46.9897C59.1598 46.9032 58.9347 46.8738 58.7139 46.9048C58.493 46.9357 58.2847 47.0258 58.1109 47.1655C57.9252 47.3267 57.7783 47.5278 57.6812 47.7537C57.5841 47.9797 57.5392 48.2246 57.55 48.4703C57.5745 49.4793 58.3728 50.4757 59.2592 50.8954C60.2576 51.3681 61.6211 50.9664 61.8768 49.8023C61.93 49.5602 61.6002 49.476 61.4623 49.6316C61.2741 49.8391 61.1722 50.1106 61.1774 50.3908C61.1827 50.6709 61.2947 50.9384 61.4906 51.1387C61.6864 51.339 61.9514 51.457 62.2313 51.4685C62.5112 51.48 62.7849 51.3842 62.9966 51.2007L62.6255 51.0479C62.7333 51.4999 62.9583 51.9154 63.2778 52.2529C63.5972 52.5903 63.9999 52.8376 64.4453 52.97C64.6651 53.0358 64.893 53.0706 65.1224 53.0731C65.4013 53.0739 65.6877 53.2139 65.9543 53.3007L67.8759 53.9268C68.1585 54.0188 68.3379 53.5898 68.0529 53.4969L66.3126 52.93C66.0226 52.8355 65.7333 52.7384 65.4425 52.6465C65.2346 52.5808 65.0069 52.6164 64.7901 52.5777C64.3841 52.5009 64.0084 52.3103 63.7067 52.028C63.405 51.7458 63.1897 51.3837 63.086 50.9838C63.0796 50.944 63.0632 50.9065 63.0382 50.8749C63.0132 50.8433 62.9805 50.8186 62.9433 50.8033C62.906 50.788 62.8654 50.7824 62.8254 50.7873C62.7854 50.7921 62.7474 50.8072 62.7148 50.8309C62.5933 50.9466 62.4309 51.0096 62.2631 51.0062C62.0953 51.0027 61.9357 50.9332 61.8189 50.8126C61.7022 50.692 61.6379 50.5302 61.6399 50.3623C61.6419 50.1945 61.7101 50.0343 61.8297 49.9166L61.4153 49.7459C61.2503 50.4968 60.3343 50.7786 59.6741 50.5615C58.9357 50.3186 58.3011 49.612 58.0809 48.8718C58.022 48.6939 58.0004 48.5059 58.0175 48.3193C58.0345 48.1327 58.0899 47.9517 58.1801 47.7875C58.2604 47.6377 58.3858 47.5169 58.5384 47.4421C58.6911 47.3674 58.8633 47.3424 59.031 47.3707C59.1806 47.3918 59.3163 47.4703 59.4092 47.5895C59.5021 47.7088 59.545 47.8595 59.5289 48.0098C59.5043 48.1789 59.4385 48.3394 59.3373 48.477C59.236 48.6147 59.1025 48.7254 58.9485 48.7994C58.5329 49.0224 58.0353 49.078 57.5738 49.1286C57.0475 49.1858 56.5175 49.2009 55.9889 49.1737C55.6922 49.1587 55.6326 49.6201 55.9324 49.6352Z" fill="#FF961A"/>
<path d="M87.7008 36.5546V73.4874H21.6504V29.8739H31.9865L41.5172 36.5546H87.7008Z" fill="white"/>
<path d="M52.6589 66.5546H25.6841V68.6975H52.6589V66.5546Z" fill="#FF961A"/>
<path d="M39.1715 62.395H25.6841V64.5378H39.1715V62.395Z" fill="#FF961A"/>
<path d="M87.8269 73.6134H21.5244V29.7479H32.0264L41.5576 36.4286H87.8269V73.6134ZM21.7765 73.3613H87.5748V36.6807H41.478L31.9468 30H21.7765V73.3613Z" fill="#3F3D56"/>
<path d="M114.598 69.1558L112.363 69.9545L108.219 61.714L111.517 60.5352L114.598 69.1558Z" fill="#9F616A"/>
<path d="M108.736 73.6939L108.704 73.6028C108.439 72.8588 108.48 72.0401 108.818 71.3263C109.156 70.6125 109.763 70.0619 110.506 69.7953L114.908 68.2223L115.943 71.1185L108.736 73.6939Z" fill="#2F2E41"/>
<path d="M100.065 71.3662H97.6915L96.5625 62.2117L100.065 62.2118L100.065 71.3662Z" fill="#9F616A"/>
<path d="M100.67 73.6669L93.0176 73.6666V73.5698C93.0176 73.1787 93.0946 72.7913 93.2443 72.43C93.394 72.0686 93.6134 71.7402 93.89 71.4636C94.1666 71.187 94.495 70.9676 94.8564 70.8179C95.2178 70.6683 95.6051 70.5912 95.9963 70.5912H95.9965L100.671 70.5914L100.67 73.6669Z" fill="#2F2E41"/>
<path d="M105.474 12.8806L104.442 10.8411C104.442 10.8411 100.597 11.8045 100.247 14.033L105.474 12.8806Z" fill="#FF961A"/>
<path d="M109.733 36.2014L106.926 51.8656L114.379 65.0466L109.926 66.7888L102.376 54.0118L101.408 50.5272L100.828 68.7247L96.8119 68.6028L94.9707 51.6107L97.9237 35.8143L109.733 36.2014Z" fill="#2F2E41"/>
<path d="M109.152 29.1246L109.055 19.9391C109.055 16.0462 106.493 13.1769 106.138 12.9114C105.971 12.3781 105.671 12.0095 105.247 11.8166C104.393 11.4295 103.348 11.894 103.304 11.9149L100.17 13.0896L100.156 13.1326C100.122 13.2309 96.9608 23.6059 96.1669 26.2098C96.0539 26.5834 95.9888 26.7972 95.9888 26.7972C95.9888 26.7972 96.0011 27.3993 96.0231 28.3357C96.0932 31.5552 96.2591 38.7266 96.3254 39.0277C96.3254 39.0277 102.113 39.9051 104.405 39.9051C108.528 39.9051 111.146 39.1162 111.205 39.1026L111.3 39.083L109.152 29.1246Z" fill="#FF961A"/>
<path d="M103.267 9.67977C105.32 8.55753 106.075 5.98354 104.953 3.9306C103.83 1.87765 101.256 1.12316 99.2035 2.24539C97.1506 3.36763 96.3961 5.94161 97.5183 7.99456C98.6405 10.0475 101.215 10.802 103.267 9.67977Z" fill="#9F616A"/>
<path opacity="0.2" d="M101.705 27.1806L96.0232 28.3357C96.0011 27.3993 95.9888 26.7972 95.9888 26.7972C95.9888 26.7972 96.0539 26.5834 96.1669 26.2098L101.705 27.1806Z" fill="black"/>
<path d="M84.8785 25.9698C85.0803 26.1428 85.3175 26.2694 85.5735 26.3408C85.8295 26.4122 86.0981 26.4266 86.3603 26.383C86.6224 26.3393 86.8718 26.2388 87.0909 26.0883C87.31 25.9379 87.4935 25.7412 87.6283 25.5122L93.9622 26.7846L92.7022 23.6728L86.8806 22.9416C86.4809 22.7406 86.0213 22.6931 85.5889 22.8083C85.1565 22.9234 84.7814 23.1932 84.5346 23.5665C84.2878 23.9397 84.1865 24.3905 84.2499 24.8335C84.3133 25.2764 84.537 25.6807 84.8785 25.9698Z" fill="#9F616A"/>
<path d="M92.3807 23.4858L90.0994 23.1706L89.3384 26.3405L92.2184 26.5054L92.3807 23.4858Z" fill="#FF961A"/>
<path d="M91.6005 22.8749L98.3508 22.126L101.932 15.7721C102.302 15.1154 102.899 14.6159 103.61 14.3668C104.321 14.1176 105.099 14.1359 105.798 14.4183C106.497 14.7006 107.069 15.2276 107.408 15.901C107.747 16.5743 107.829 17.348 107.639 18.0775L107.619 18.1564L101.598 26.94L90.3418 27.4952L91.6005 22.8749Z" fill="#3F3D56"/>
<path d="M104.844 9.64068L101.328 9.76689C101.114 9.77458 100.532 7.4615 100.456 6.98166C100.396 6.66926 100.224 6.38945 99.9726 6.19449C99.7212 5.99953 99.4074 5.90275 99.0899 5.92223C98.8267 5.94709 98.1629 5.45535 97.478 4.87308C96.1778 3.76763 96.2454 1.69144 97.6738 0.757333C97.7128 0.731803 97.7511 0.708491 97.7887 0.687399C98.6898 0.183056 99.7439 0.0136916 100.776 0.000776504C101.712 -0.0109311 102.675 0.106881 103.5 0.549918C104.978 1.34419 105.765 3.0799 105.834 4.7567C105.903 6.43349 105.365 8.0731 104.755 9.63653" fill="#2F2E41"/>
<path d="M119.874 73.8655H0.12605C0.0926198 73.8655 0.0605583 73.8523 0.0369192 73.8286C0.0132802 73.805 0 73.7729 0 73.7395C0 73.7061 0.0132802 73.674 0.0369192 73.6504C0.0605583 73.6267 0.0926198 73.6134 0.12605 73.6134H119.874C119.907 73.6134 119.939 73.6267 119.963 73.6504C119.987 73.674 120 73.7061 120 73.7395C120 73.7729 119.987 73.805 119.963 73.8286C119.939 73.8523 119.907 73.8655 119.874 73.8655Z" fill="#CBCBCB"/>
</g>
<defs>
<clipPath id="clip0_58_390">
<rect width="120" height="73.8655" fill="white"/>
</clipPath>
</defs>
</svg>
