<svg width="120" height="78" viewBox="0 0 120 78" fill="none" xmlns="http://www.w3.org/2000/svg">
<g clip-path="url(#clip0_58_325)">
<path d="M83.7538 52.3351C71.4088 52.3357 60.6678 43.1266 59.0811 30.5658L59.3843 30.5275C60.9515 42.9331 71.5616 52.0287 83.754 52.0294C84.7899 52.0294 85.8248 51.9641 86.8525 51.8339C100.3 50.1351 109.858 37.813 108.159 24.3658L108.462 24.3275C110.182 37.9418 100.505 50.4174 86.8909 52.1372C85.8504 52.2688 84.8026 52.3349 83.7538 52.3351Z" fill="#3F3D56"/>
<path d="M93.5979 12.3243C92.7936 10.1979 92.8668 7.83912 93.8016 5.76681C94.7364 3.69449 96.4562 2.0784 98.5825 1.27405C100.709 0.469705 103.068 0.54299 105.14 1.47778C107.212 2.41258 108.828 4.13231 109.633 6.25866L109.347 6.36686C108.571 4.31636 107.013 2.65797 105.014 1.75651C103.016 0.855049 100.741 0.78437 98.6907 1.56002C96.6402 2.33567 94.9818 3.89411 94.0804 5.8925C93.1789 7.8909 93.1082 10.1655 93.8839 12.216L93.5979 12.3243Z" fill="#3F3D56"/>
<path d="M118.429 27.2854H102.891C102.475 27.2849 102.076 27.1193 101.781 26.8248C101.487 26.5304 101.321 26.1312 101.321 25.7148V5.14085C101.321 4.72443 101.487 4.32521 101.781 4.03076C102.076 3.73631 102.475 3.57068 102.891 3.57021H118.429C118.846 3.57068 119.245 3.73631 119.539 4.03076C119.834 4.32521 119.999 4.72443 120 5.14085V25.7148C119.999 26.1312 119.834 26.5304 119.539 26.8248C119.245 27.1193 118.846 27.2849 118.429 27.2854Z" fill="#9CFEE9"/>
<path d="M112.256 26.0527H103.984C103.594 26.0523 103.22 25.8972 102.944 25.6214C102.668 25.3457 102.513 24.9718 102.513 24.5818V6.27381C102.513 5.88381 102.668 5.50992 102.944 5.23416C103.22 4.9584 103.594 4.80329 103.984 4.80286H117.337C117.727 4.80329 118.101 4.9584 118.377 5.23417C118.653 5.50993 118.808 5.88382 118.808 6.27381V19.5006C118.806 21.2377 118.115 22.9032 116.887 24.1315C115.659 25.3598 113.993 26.0508 112.256 26.0527Z" fill="white"/>
<path d="M116.005 13.984H105.316C105.223 13.984 105.135 13.9473 105.069 13.8819C105.004 13.8165 104.967 13.7278 104.967 13.6354C104.967 13.5429 105.004 13.4543 105.069 13.3889C105.135 13.3235 105.223 13.2868 105.316 13.2868H116.005C116.098 13.2868 116.186 13.3235 116.252 13.3889C116.317 13.4543 116.354 13.5429 116.354 13.6354C116.354 13.7278 116.317 13.8165 116.252 13.8819C116.186 13.9473 116.098 13.984 116.005 13.984Z" fill="#E4E4E4"/>
<path d="M116.005 15.3615H105.316C105.223 15.3613 105.135 15.3245 105.07 15.2592C105.004 15.1938 104.968 15.1052 104.968 15.0129C104.968 14.9206 105.004 14.832 105.07 14.7666C105.135 14.7013 105.223 14.6645 105.316 14.6643H116.005C116.097 14.6643 116.186 14.701 116.251 14.7664C116.317 14.8318 116.354 14.9204 116.354 15.0129C116.354 15.1054 116.317 15.194 116.251 15.2594C116.186 15.3248 116.097 15.3615 116.005 15.3615Z" fill="#E4E4E4"/>
<path d="M109.949 16.7391H105.316C105.223 16.7391 105.135 16.7024 105.069 16.637C105.004 16.5716 104.967 16.4829 104.967 16.3905C104.967 16.298 105.004 16.2093 105.069 16.1439C105.135 16.0786 105.223 16.0418 105.316 16.0418H109.949C110.042 16.0418 110.131 16.0786 110.196 16.1439C110.261 16.2093 110.298 16.298 110.298 16.3905C110.298 16.4829 110.261 16.5716 110.196 16.637C110.131 16.7024 110.042 16.7391 109.949 16.7391Z" fill="#E4E4E4"/>
<path d="M116.005 8.35851H105.316C105.223 8.35851 105.135 8.32178 105.069 8.25641C105.004 8.19103 104.967 8.10236 104.967 8.0099C104.967 7.91744 105.004 7.82877 105.069 7.76339C105.135 7.69801 105.223 7.66129 105.316 7.66129H116.005C116.098 7.66129 116.186 7.69801 116.252 7.76339C116.317 7.82877 116.354 7.91744 116.354 8.0099C116.354 8.10236 116.317 8.19103 116.252 8.25641C116.186 8.32178 116.098 8.35851 116.005 8.35851Z" fill="#E4E4E4"/>
<path d="M116.005 9.73605H105.316C105.223 9.73605 105.135 9.69932 105.069 9.63394C105.004 9.56856 104.967 9.47988 104.967 9.38742C104.967 9.29496 105.004 9.20628 105.069 9.1409C105.135 9.07552 105.223 9.03879 105.316 9.03879H116.005C116.098 9.03879 116.186 9.07552 116.252 9.1409C116.317 9.20628 116.354 9.29496 116.354 9.38742C116.354 9.47988 116.317 9.56856 116.252 9.63394C116.186 9.69932 116.098 9.73605 116.005 9.73605Z" fill="#E4E4E4"/>
<path d="M109.949 11.1136H105.316C105.223 11.1134 105.135 11.0766 105.07 11.0112C105.004 10.9459 104.968 10.8573 104.968 10.765C104.968 10.6726 105.004 10.5841 105.07 10.5187C105.135 10.4533 105.223 10.4165 105.316 10.4163H109.949C110.042 10.4165 110.13 10.4533 110.195 10.5187C110.26 10.5841 110.297 10.6726 110.297 10.765C110.297 10.8573 110.26 10.9459 110.195 11.0112C110.13 11.0766 110.042 11.1134 109.949 11.1136Z" fill="#E4E4E4"/>
<path d="M116.005 19.8064H105.316C105.223 19.8064 105.135 19.7696 105.069 19.7043C105.004 19.6389 104.967 19.5502 104.967 19.4578C104.967 19.3653 105.004 19.2766 105.069 19.2113C105.135 19.1459 105.223 19.1091 105.316 19.1091H116.005C116.098 19.1091 116.186 19.1459 116.252 19.2113C116.317 19.2766 116.354 19.3653 116.354 19.4578C116.354 19.5502 116.317 19.6389 116.252 19.7043C116.186 19.7696 116.098 19.8064 116.005 19.8064Z" fill="#0CD4B5"/>
<path d="M106.988 21.1839H105.316C105.223 21.1837 105.135 21.1469 105.07 21.0815C105.004 21.0162 104.968 20.9276 104.968 20.8353C104.968 20.7429 105.004 20.6544 105.07 20.589C105.135 20.5237 105.223 20.4868 105.316 20.4866H106.988C107.08 20.4866 107.169 20.5234 107.234 20.5888C107.3 20.6541 107.336 20.7428 107.336 20.8353C107.336 20.9277 107.3 21.0164 107.234 21.0818C107.169 21.1472 107.08 21.1839 106.988 21.1839Z" fill="#0CD4B5"/>
<path d="M109.949 22.5615H105.316C105.223 22.5615 105.135 22.5247 105.069 22.4593C105.004 22.394 104.967 22.3053 104.967 22.2128C104.967 22.1204 105.004 22.0317 105.069 21.9663C105.135 21.9009 105.223 21.8642 105.316 21.8642H109.949C110.042 21.8642 110.131 21.9009 110.196 21.9663C110.261 22.0317 110.298 22.1204 110.298 22.2128C110.298 22.3053 110.261 22.394 110.196 22.4593C110.131 22.5247 110.042 22.5615 109.949 22.5615Z" fill="#0CD4B5"/>
<path d="M59.3129 26.5957C57.9665 23.0312 58.0907 19.078 59.6583 15.6051C61.2258 12.1322 64.1084 9.42394 67.6723 8.07583C71.2361 6.72772 75.1894 6.85008 78.6631 8.41601C82.1367 9.98194 84.8463 12.8633 86.1961 16.4265L85.9101 16.5347C85.2571 14.8064 84.27 13.2237 83.0051 11.877C81.7403 10.5303 80.2226 9.44604 78.5386 8.68605C76.8546 7.92605 75.0374 7.50527 73.1908 7.44772C71.3442 7.39018 69.5043 7.697 67.7763 8.35066C66.0482 9.00433 64.4659 9.99203 63.1197 11.2573C61.7735 12.5227 60.6897 14.0408 59.9303 15.7251C59.171 17.4093 58.7508 19.2267 58.694 21.0733C58.6371 22.92 58.9446 24.7597 59.5989 26.4875L59.3129 26.5957Z" fill="#3F3D56"/>
<path d="M86.0312 3.16166C86.837 3.16166 87.4902 2.50846 87.4902 1.7027C87.4902 0.896941 86.837 0.243744 86.0312 0.243744C85.2255 0.243744 84.5723 0.896941 84.5723 1.7027C84.5723 2.50846 85.2255 3.16166 86.0312 3.16166Z" fill="#FF132F"/>
<path d="M88.018 45.191C88.8238 45.191 89.477 44.5378 89.477 43.732C89.477 42.9263 88.8238 42.2731 88.018 42.2731C87.2123 42.2731 86.5591 42.9263 86.5591 43.732C86.5591 44.5378 87.2123 45.191 88.018 45.191Z" fill="#1D77FF"/>
<path d="M50.5737 10.4977C51.3795 10.4977 52.0327 9.84449 52.0327 9.03873C52.0327 8.23297 51.3795 7.57977 50.5737 7.57977C49.7679 7.57977 49.1147 8.23297 49.1147 9.03873C49.1147 9.84449 49.7679 10.4977 50.5737 10.4977Z" fill="#FF961A"/>
<path d="M70.7163 68.9874H37.317C36.422 68.9864 35.5638 68.6304 34.9309 67.9974C34.298 67.3645 33.9419 66.5063 33.9409 65.6113V21.3868C33.9419 20.4917 34.298 19.6336 34.9309 19.0007C35.5638 18.3677 36.422 18.0117 37.3171 18.0107H70.7163C71.6114 18.0117 72.4696 18.3677 73.1025 19.0007C73.7354 19.6336 74.0914 20.4917 74.0925 21.3868V65.6113C74.0914 66.5064 73.7354 67.3645 73.1025 67.9974C72.4696 68.6304 71.6114 68.9864 70.7163 68.9874Z" fill="#9CFEE9"/>
<path d="M57.9689 66.25H39.6649C38.8499 66.2491 38.0685 65.9249 37.4922 65.3486C36.9159 64.7723 36.5917 63.9909 36.5908 63.1759V23.8222C36.5917 23.0072 36.9159 22.2258 37.4922 21.6495C38.0685 21.0732 38.8499 20.749 39.6649 20.7481H68.3687C69.1837 20.749 69.9651 21.0732 70.5414 21.6495C71.1177 22.2258 71.4419 23.0072 71.4428 23.8222V52.7761C71.4387 56.3484 70.0179 59.7732 67.4919 62.2991C64.9659 64.8251 61.5412 66.246 57.9689 66.25Z" fill="white"/>
<path d="M65.5053 28.3033H42.5283C42.4298 28.3034 42.3322 28.2842 42.2412 28.2466C42.1501 28.209 42.0674 28.1538 41.9977 28.0842C41.928 28.0146 41.8727 27.932 41.835 27.841C41.7973 27.75 41.7778 27.6524 41.7778 27.554C41.7778 27.4555 41.7973 27.3579 41.835 27.2669C41.8727 27.176 41.928 27.0933 41.9977 27.0237C42.0674 26.9541 42.1501 26.8989 42.2412 26.8613C42.3322 26.8237 42.4298 26.8045 42.5283 26.8046H65.5053C65.6038 26.8045 65.7013 26.8237 65.7924 26.8613C65.8834 26.8989 65.9662 26.9541 66.0359 27.0237C66.1056 27.0933 66.1608 27.176 66.1986 27.2669C66.2363 27.3579 66.2557 27.4555 66.2557 27.554C66.2557 27.6524 66.2363 27.75 66.1986 27.841C66.1608 27.932 66.1056 28.0146 66.0359 28.0842C65.9662 28.1538 65.8834 28.209 65.7924 28.2466C65.7013 28.2842 65.6038 28.3034 65.5053 28.3033Z" fill="#0CD4B5"/>
<path d="M65.5052 31.2644H42.5282C42.3295 31.2644 42.1388 31.1854 41.9983 31.0449C41.8578 30.9044 41.7788 30.7137 41.7788 30.515C41.7788 30.3162 41.8578 30.1256 41.9983 29.9851C42.1388 29.8445 42.3295 29.7656 42.5282 29.7656H65.5052C65.704 29.7656 65.8946 29.8445 66.0351 29.9851C66.1757 30.1256 66.2546 30.3162 66.2546 30.515C66.2546 30.7137 66.1757 30.9044 66.0351 31.0449C65.8946 31.1854 65.704 31.2644 65.5052 31.2644Z" fill="#0CD4B5"/>
<path d="M52.4882 34.2255H42.5282C42.3295 34.2255 42.1388 34.1465 41.9983 34.006C41.8578 33.8654 41.7788 33.6748 41.7788 33.4761C41.7788 33.2773 41.8578 33.0867 41.9983 32.9462C42.1388 32.8056 42.3295 32.7267 42.5282 32.7267H52.4882C52.6869 32.7267 52.8776 32.8056 53.0181 32.9462C53.1586 33.0867 53.2376 33.2773 53.2376 33.4761C53.2376 33.6748 53.1586 33.8654 53.0181 34.006C52.8776 34.1465 52.6869 34.2255 52.4882 34.2255Z" fill="#0CD4B5"/>
<path d="M65.5053 40.4271H42.5283C42.4298 40.4272 42.3322 40.4079 42.2412 40.3703C42.1501 40.3327 42.0674 40.2776 41.9977 40.208C41.928 40.1384 41.8727 40.0557 41.835 39.9647C41.7973 39.8737 41.7778 39.7762 41.7778 39.6777C41.7778 39.5792 41.7973 39.4817 41.835 39.3907C41.8727 39.2997 41.928 39.2171 41.9977 39.1475C42.0674 39.0779 42.1501 39.0227 42.2412 38.9851C42.3322 38.9475 42.4298 38.9282 42.5283 38.9284H65.5053C65.6038 38.9282 65.7013 38.9475 65.7924 38.9851C65.8834 39.0227 65.9662 39.0779 66.0359 39.1475C66.1056 39.2171 66.1608 39.2997 66.1986 39.3907C66.2363 39.4817 66.2557 39.5792 66.2557 39.6777C66.2557 39.7762 66.2363 39.8737 66.1986 39.9647C66.1608 40.0557 66.1056 40.1384 66.0359 40.208C65.9662 40.2776 65.8834 40.3327 65.7924 40.3703C65.7013 40.4079 65.6038 40.4272 65.5053 40.4271Z" fill="#E4E4E4"/>
<path d="M65.5052 43.3882H42.5282C42.3295 43.3882 42.1388 43.3092 41.9983 43.1687C41.8578 43.0281 41.7788 42.8375 41.7788 42.6388C41.7788 42.44 41.8578 42.2494 41.9983 42.1089C42.1388 41.9683 42.3295 41.8894 42.5282 41.8894H65.5052C65.704 41.8894 65.8946 41.9683 66.0351 42.1089C66.1757 42.2494 66.2546 42.44 66.2546 42.6388C66.2546 42.8375 66.1757 43.0281 66.0351 43.1687C65.8946 43.3092 65.704 43.3882 65.5052 43.3882Z" fill="#E4E4E4"/>
<path d="M52.4882 46.3492H42.5282C42.3295 46.3492 42.1388 46.2703 41.9983 46.1297C41.8578 45.9892 41.7788 45.7986 41.7788 45.5998C41.7788 45.4011 41.8578 45.2105 41.9983 45.0699C42.1388 44.9294 42.3295 44.8504 42.5282 44.8504H52.4882C52.6869 44.8504 52.8776 44.9294 53.0181 45.0699C53.1586 45.2105 53.2376 45.4011 53.2376 45.5998C53.2376 45.7986 53.1586 45.9892 53.0181 46.1297C52.8776 46.2703 52.6869 46.3492 52.4882 46.3492Z" fill="#E4E4E4"/>
<path d="M65.5053 52.5508H42.5283C42.4298 52.551 42.3322 52.5317 42.2412 52.4941C42.1501 52.4565 42.0674 52.4013 41.9977 52.3317C41.928 52.2621 41.8727 52.1795 41.835 52.0885C41.7973 51.9975 41.7778 51.9 41.7778 51.8015C41.7778 51.703 41.7973 51.6055 41.835 51.5145C41.8727 51.4235 41.928 51.3408 41.9977 51.2712C42.0674 51.2016 42.1501 51.1465 42.2412 51.1089C42.3322 51.0713 42.4298 51.052 42.5283 51.0521H65.5053C65.6038 51.052 65.7013 51.0713 65.7924 51.1089C65.8834 51.1465 65.9662 51.2016 66.0359 51.2712C66.1056 51.3408 66.1608 51.4235 66.1986 51.5145C66.2363 51.6055 66.2557 51.703 66.2557 51.8015C66.2557 51.9 66.2363 51.9975 66.1986 52.0885C66.1608 52.1795 66.1056 52.2621 66.0359 52.3317C65.9662 52.4013 65.8834 52.4565 65.7924 52.4941C65.7013 52.5317 65.6038 52.551 65.5053 52.5508Z" fill="#E4E4E4"/>
<path d="M65.5052 55.5119H42.5282C42.3295 55.5119 42.1388 55.433 41.9983 55.2924C41.8578 55.1519 41.7788 54.9613 41.7788 54.7625C41.7788 54.5638 41.8578 54.3732 41.9983 54.2326C42.1388 54.0921 42.3295 54.0131 42.5282 54.0131H65.5052C65.704 54.0131 65.8946 54.0921 66.0351 54.2326C66.1757 54.3732 66.2546 54.5638 66.2546 54.7625C66.2546 54.9613 66.1757 55.1519 66.0351 55.2924C65.8946 55.433 65.704 55.5119 65.5052 55.5119Z" fill="#E4E4E4"/>
<path d="M52.4881 58.473H42.5281C42.3295 58.4727 42.1392 58.3936 41.9989 58.2531C41.8586 58.1126 41.7798 57.9222 41.7798 57.7236C41.7798 57.525 41.8586 57.3346 41.9989 57.1941C42.1392 57.0536 42.3295 56.9745 42.5281 56.9742H52.4881C52.6867 56.9745 52.877 57.0536 53.0173 57.1941C53.1576 57.3346 53.2364 57.525 53.2364 57.7236C53.2364 57.9222 53.1576 58.1126 53.0173 58.2531C52.877 58.3936 52.6867 58.4727 52.4881 58.473Z" fill="#E4E4E4"/>
<path d="M96.45 36.1498H79.5359C79.0826 36.1493 78.648 35.969 78.3275 35.6484C78.007 35.3279 77.8267 34.8933 77.8262 34.44V12.0438C77.8267 11.5905 78.007 11.1559 78.3275 10.8354C78.648 10.5149 79.0826 10.3346 79.5359 10.3341H96.45C96.9033 10.3346 97.3379 10.5149 97.6584 10.8354C97.979 11.1559 98.1593 11.5905 98.1598 12.0438V34.44C98.1593 34.8933 97.979 35.3279 97.6584 35.6484C97.3379 35.969 96.9033 36.1493 96.45 36.1498Z" fill="#9CFEE9"/>
<path d="M90.1799 34.8011H80.7248C80.3021 34.8007 79.8968 34.6325 79.5979 34.3336C79.299 34.0347 79.1309 33.6294 79.1304 33.2067V13.2771C79.1308 12.8544 79.299 12.4491 79.5979 12.1502C79.8968 11.8513 80.3021 11.6831 80.7248 11.6826H95.2611C95.6838 11.6831 96.0891 11.8512 96.388 12.1502C96.687 12.4491 96.8551 12.8544 96.8556 13.2771V28.1255C96.8536 29.8954 96.1496 31.5922 94.8981 32.8437C93.6466 34.0952 91.9498 34.7991 90.1799 34.8011Z" fill="white"/>
<path d="M93.811 15.5465H82.1749C82.0743 15.5465 81.9777 15.5065 81.9066 15.4353C81.8354 15.3642 81.7954 15.2676 81.7954 15.167C81.7954 15.0663 81.8354 14.9698 81.9066 14.8987C81.9777 14.8275 82.0743 14.7875 82.1749 14.7875H93.811C93.9116 14.7875 94.0081 14.8275 94.0793 14.8987C94.1505 14.9698 94.1904 15.0663 94.1904 15.167C94.1904 15.2676 94.1505 15.3642 94.0793 15.4353C94.0081 15.5065 93.9116 15.5465 93.811 15.5465Z" fill="#E4E4E4"/>
<path d="M93.8107 17.046H82.1746C82.0741 17.0458 81.9778 17.0058 81.9068 16.9346C81.8358 16.8635 81.7959 16.767 81.7959 16.6665C81.7959 16.566 81.8358 16.4696 81.9068 16.3984C81.9778 16.3273 82.0741 16.2872 82.1746 16.287H93.8107C93.9112 16.2872 94.0076 16.3273 94.0786 16.3984C94.1496 16.4696 94.1894 16.566 94.1894 16.6665C94.1894 16.767 94.1496 16.8635 94.0786 16.9346C94.0076 17.0058 93.9112 17.0458 93.8107 17.046Z" fill="#E4E4E4"/>
<path d="M87.2186 18.5456H82.1746C82.0741 18.5454 81.9778 18.5053 81.9068 18.4342C81.8358 18.363 81.7959 18.2666 81.7959 18.1661C81.7959 18.0656 81.8358 17.9692 81.9068 17.898C81.9778 17.8269 82.0741 17.7868 82.1746 17.7866H87.2186C87.3191 17.7868 87.4155 17.8269 87.4865 17.898C87.5575 17.9692 87.5973 18.0656 87.5973 18.1661C87.5973 18.2666 87.5575 18.363 87.4865 18.4342C87.4155 18.5053 87.3191 18.5454 87.2186 18.5456Z" fill="#E4E4E4"/>
<path d="M93.811 21.6862H82.1749C82.0743 21.6862 81.9777 21.6462 81.9066 21.5751C81.8354 21.5039 81.7954 21.4074 81.7954 21.3067C81.7954 21.2061 81.8354 21.1096 81.9066 21.0384C81.9777 20.9672 82.0743 20.9272 82.1749 20.9272H93.811C93.9116 20.9272 94.0081 20.9672 94.0793 21.0384C94.1505 21.1096 94.1904 21.2061 94.1904 21.3067C94.1904 21.4074 94.1505 21.5039 94.0793 21.5751C94.0081 21.6462 93.9116 21.6862 93.811 21.6862Z" fill="#0CD4B5"/>
<path d="M90.7543 23.1858H82.1749C82.0743 23.1858 81.9777 23.1458 81.9066 23.0746C81.8354 23.0034 81.7954 22.9069 81.7954 22.8063C81.7954 22.7056 81.8354 22.6091 81.9066 22.5379C81.9777 22.4667 82.0743 22.4268 82.1749 22.4268H90.7543C90.855 22.4268 90.9515 22.4667 91.0226 22.5379C91.0938 22.6091 91.1338 22.7056 91.1338 22.8063C91.1338 22.9069 91.0938 23.0034 91.0226 23.0746C90.9515 23.1458 90.855 23.1858 90.7543 23.1858Z" fill="#0CD4B5"/>
<path d="M87.2186 24.6853H82.1746C82.0741 24.6851 81.9778 24.645 81.9068 24.5739C81.8358 24.5027 81.7959 24.4063 81.7959 24.3058C81.7959 24.2053 81.8358 24.1089 81.9068 24.0377C81.9778 23.9666 82.0741 23.9265 82.1746 23.9263H87.2186C87.3191 23.9265 87.4155 23.9666 87.4865 24.0377C87.5575 24.1089 87.5973 24.2053 87.5973 24.3058C87.5973 24.4063 87.5575 24.5027 87.4865 24.5739C87.4155 24.645 87.3191 24.6851 87.2186 24.6853Z" fill="#0CD4B5"/>
<path d="M93.811 27.8259H82.1749C82.0743 27.8259 81.9777 27.786 81.9066 27.7148C81.8354 27.6436 81.7954 27.5471 81.7954 27.4465C81.7954 27.3458 81.8354 27.2493 81.9066 27.1781C81.9777 27.107 82.0743 27.067 82.1749 27.067H93.811C93.9116 27.067 94.0081 27.107 94.0793 27.1781C94.1505 27.2493 94.1904 27.3458 94.1904 27.4465C94.1904 27.5471 94.1505 27.6436 94.0793 27.7148C94.0081 27.786 93.9116 27.8259 93.811 27.8259Z" fill="#E4E4E4"/>
<path d="M93.811 29.3255H82.1749C82.0743 29.3255 81.9777 29.2855 81.9066 29.2143C81.8354 29.1432 81.7954 29.0466 81.7954 28.946C81.7954 28.8453 81.8354 28.7488 81.9066 28.6776C81.9777 28.6065 82.0743 28.5665 82.1749 28.5665H93.811C93.9116 28.5665 94.0082 28.6065 94.0793 28.6776C94.1505 28.7488 94.1905 28.8453 94.1905 28.946C94.1905 29.0466 94.1505 29.1432 94.0793 29.2143C94.0082 29.2855 93.9116 29.3255 93.811 29.3255Z" fill="#E4E4E4"/>
<path d="M87.2186 30.8251H82.1746C82.0741 30.8249 81.9778 30.7848 81.9068 30.7136C81.8358 30.6425 81.7959 30.5461 81.7959 30.4455C81.7959 30.345 81.8358 30.2486 81.9068 30.1775C81.9778 30.1063 82.0741 30.0662 82.1746 30.066H87.2186C87.3191 30.0662 87.4155 30.1063 87.4865 30.1775C87.5575 30.2486 87.5973 30.345 87.5973 30.4455C87.5973 30.5461 87.5575 30.6425 87.4865 30.7136C87.4155 30.7848 87.3191 30.8249 87.2186 30.8251Z" fill="#E4E4E4"/>
<path d="M19.7761 43.8443C19.9056 43.7034 20.0026 43.5358 20.0604 43.3533C20.1181 43.1708 20.1351 42.9779 20.1102 42.7881C20.0853 42.5983 20.0191 42.4163 19.9163 42.2549C19.8135 42.0935 19.6765 41.9566 19.515 41.8538L20.588 37.3267L18.3171 38.1564L17.6463 42.3282C17.4917 42.6109 17.4461 42.9405 17.5183 43.2546C17.5904 43.5686 17.7753 43.8453 18.0378 44.0322C18.3003 44.2191 18.6223 44.3032 18.9426 44.2685C19.263 44.2339 19.5596 44.0829 19.7761 43.8443Z" fill="#FFB8B8"/>
<path d="M25.2369 24.8734L24.3255 27.2169C24.3255 27.2169 24.7161 29.5604 24.0652 30.0812C23.4142 30.602 23.6746 30.602 23.6746 30.9926C23.6521 31.2727 23.571 31.545 23.4364 31.7918C23.3018 32.0385 23.1168 32.2542 22.8934 32.4247C22.3726 32.8153 20.0291 40.7572 20.0291 40.7572H17.6856C17.7613 40.152 17.7613 39.5397 17.6856 38.9345C17.5554 38.0231 18.0762 35.6796 18.3366 35.289C18.597 34.8984 18.3366 34.3777 18.3366 33.5965C18.3366 32.8153 18.8573 32.4247 18.8573 31.1228C18.8573 29.8208 20.4197 19.6656 20.2895 18.4938C20.1593 17.3221 21.5914 16.2805 21.5914 16.2805H22.8934L25.2369 24.8734Z" fill="#0CD4B5"/>
<path d="M30.7513 29.844L32.9175 39.5108L19.0366 38.6473L22.8112 29.1537L30.7513 29.844Z" fill="#FFB8B8"/>
<path d="M0.494373 66.1762C0.907582 67.6701 1.55275 69.0899 2.40632 70.3837C4.31369 73.2677 7.04331 75.4731 10.0434 77.2383C10.2513 77.3621 10.4622 77.4828 10.6731 77.6021H12.7776L12.851 77.4339V77.4324L12.9366 77.2383L12.9473 77.2154L12.9519 77.2383L13.0359 77.6021H14.0691C14.1546 77.4813 14.2387 77.3606 14.3212 77.2383C14.442 77.0595 14.5581 76.8792 14.6682 76.6958C14.8624 76.375 15.036 76.0422 15.1878 75.6993C15.2062 75.6611 15.2214 75.6229 15.2367 75.5846L15.1679 75.5098L15.4537 74.2596L14.8791 74.1648L15.5088 72.2223C15.4858 72.1505 15.4598 72.0786 15.4323 72.0068C15.0793 71.1127 14.416 70.4448 13.6289 69.8839C12.8189 69.3047 11.8759 68.8401 11.0093 68.3571C10.6028 68.1294 10.2024 67.8895 9.81264 67.6358V67.6342C9.3144 67.3117 8.83093 66.9668 8.36224 66.5995C8.35424 66.5944 8.34659 66.5888 8.33932 66.5827C8.33284 66.5781 8.32671 66.573 8.32098 66.5674C6.21979 64.9259 4.44173 62.9084 3.07724 60.6176L3.07665 60.6175L3.07615 60.6172L3.07582 60.6167L3.07571 60.6161C3.02987 60.5427 2.98709 60.4694 2.94429 60.3945V60.393C2.38551 59.4319 1.90458 58.4276 1.50613 57.3898V57.3882C1.47555 57.3118 1.44805 57.2354 1.41901 57.159C1.37927 57.2262 1.34107 57.2935 1.30439 57.3607L1.3038 57.3609L1.30329 57.3612L1.30297 57.3617L1.30286 57.3623C-0.179631 60.0139 -0.320244 63.2082 0.494373 66.1762Z" fill="#F0F0F0"/>
<path d="M1.30278 57.3623C1.28793 58.7774 1.43509 60.1896 1.74139 61.5713C1.87904 62.2036 2.05047 62.8281 2.25493 63.442C2.65184 64.6431 3.17061 65.8005 3.80312 66.8961C3.83827 66.9557 3.87191 67.0137 3.90859 67.0718V67.0733C4.17891 67.5291 4.47222 67.9709 4.78738 68.3969C5.26433 69.0755 5.85355 69.6679 6.52969 70.1484C7.08196 70.5133 7.7065 70.7546 8.36064 70.856C8.4829 70.8789 8.60823 70.8957 8.73508 70.911C9.24097 70.9706 9.76366 70.9935 10.265 71.1005C10.5189 71.1507 10.7661 71.2302 11.0016 71.3374C11.8086 71.7118 12.2625 72.4959 12.4612 73.3334C12.4963 73.4801 12.5238 73.6284 12.5452 73.7766C12.7118 74.9152 12.5284 76.0982 12.6232 77.2383C12.6339 77.3591 12.6476 77.4813 12.6644 77.6021H12.7775L12.8509 77.434V77.4324C12.8433 77.3682 12.8371 77.304 12.831 77.2383C12.7944 76.6781 12.7898 76.1163 12.8173 75.5556C12.8234 75.3035 12.828 75.0497 12.8249 74.796C12.8218 74.5928 12.8142 74.3895 12.7989 74.1878V74.1862C12.7882 74.0609 12.776 73.9371 12.7592 73.8133C12.7107 73.4343 12.6173 73.0623 12.481 72.7053C12.3481 72.3374 12.1388 72.0018 11.867 71.7205C11.5952 71.4391 11.2669 71.2185 10.9038 71.073C10.682 70.9898 10.4534 70.9259 10.2206 70.882C9.70864 70.7841 9.17982 70.7597 8.66477 70.6955C8.60975 70.6894 8.55473 70.6818 8.50123 70.6726C8.43246 70.6619 8.36523 70.6497 8.29799 70.6374C7.62409 70.5178 6.98758 70.242 6.4395 69.832C5.78819 69.3163 5.22192 68.7016 4.76139 68.0102C4.51075 67.651 4.27232 67.2842 4.05072 66.9067C4.05073 66.9065 4.05069 66.9063 4.05062 66.9062C4.05054 66.906 4.05043 66.9058 4.05029 66.9056C4.05014 66.9055 4.04997 66.9054 4.04978 66.9053C4.0496 66.9052 4.0494 66.9052 4.04919 66.9052C4.03849 66.8869 4.0278 66.8701 4.0171 66.8517L4.01557 66.8487C3.06502 65.2242 2.37111 63.4627 1.95841 61.6263C1.94466 61.5591 1.92937 61.4918 1.9141 61.4246C1.63044 60.0987 1.49359 58.7456 1.50604 57.3898V57.3882C1.50604 57.3241 1.50755 57.2614 1.50908 57.1972C1.51214 57.0658 1.30888 57.0367 1.30584 57.1682C1.30431 57.2324 1.30278 57.2966 1.30431 57.3607C1.30411 57.3607 1.3039 57.3608 1.30372 57.3608C1.30353 57.3609 1.30336 57.361 1.30321 57.3612C1.30307 57.3613 1.30296 57.3615 1.30288 57.3617C1.30281 57.3619 1.30277 57.3621 1.30278 57.3623Z" fill="white"/>
<path d="M3.99584 67.0304C3.41346 67.3262 2.7449 67.4053 2.10955 67.2537C1.47419 67.1021 0.913421 66.7296 0.52738 66.2026C0.449635 66.0958 0.612075 65.9699 0.689924 66.077C1.0485 66.5683 1.57089 66.9152 2.16282 67.0552C2.75475 67.1952 3.37722 67.119 3.91789 66.8403C4.03545 66.7799 4.11273 66.9703 3.99584 67.0304Z" fill="white"/>
<path d="M8.2786 70.6983C8.70417 69.4327 8.63707 68.0531 8.09068 66.8348C8.03645 66.7141 8.22657 66.6363 8.28074 66.7568C8.84695 68.0257 8.91386 69.4615 8.4681 70.7776C8.42553 70.903 8.23626 70.823 8.2786 70.6983Z" fill="white"/>
<path d="M1.85508 61.4433C2.10426 61.3758 2.33278 61.2475 2.52011 61.0699C2.70744 60.8922 2.84771 60.6708 2.92833 60.4256C2.96929 60.2997 3.15854 60.3798 3.11785 60.5049C3.02751 60.7754 2.87229 61.0197 2.66576 61.2164C2.45922 61.4132 2.20765 61.5563 1.93303 61.6334C1.90776 61.6428 1.87984 61.6423 1.85495 61.6319C1.83006 61.6215 1.81006 61.602 1.79903 61.5773C1.78884 61.5521 1.789 61.5239 1.7995 61.4988C1.80999 61.4737 1.82996 61.4538 1.85508 61.4433Z" fill="white"/>
<path d="M9.81249 67.6342V67.6358C9.85989 68.7271 9.99636 69.8128 10.2205 70.882V70.8835C10.2328 70.9568 10.2496 71.0287 10.2649 71.1005C10.6337 72.754 11.1509 74.3709 11.81 75.9316C11.9919 76.3718 12.1824 76.8073 12.3816 77.2383C12.4366 77.3606 12.4932 77.4813 12.5513 77.6021H12.7775L12.8508 77.4339V77.4324L12.9364 77.2383L12.9471 77.2154L12.9517 77.2383L13.0358 77.6021H15.2213L15.6461 77.2383L16.2651 76.708L15.4001 75.7635L15.258 75.6076L15.2366 75.5847L15.1678 75.5098L15.4536 74.2596L14.8789 74.1648L15.5086 72.2223L15.8066 71.3038L15.8815 71.073L16.3171 69.7296L17.6315 69.9757L17.8454 69.2268C17.4515 68.3136 17.1236 67.3733 16.8643 66.4131C16.8627 66.4055 16.8597 66.3993 16.8581 66.3917C16.1637 63.8054 15.9554 61.1127 16.2438 58.4505V58.4489C16.2529 58.3633 16.2636 58.2762 16.2759 58.1922V58.1891C16.4069 57.0858 16.6277 55.995 16.9361 54.9276C16.9575 54.8466 16.9819 54.7672 17.0049 54.6877C16.9346 54.7182 16.8658 54.7473 16.7955 54.7779L16.794 54.7794H16.7909C16.6793 54.8283 16.5678 54.8802 16.4593 54.9353C13.8519 56.2023 11.9338 58.5804 10.8441 61.3222C10.8411 61.3298 10.838 61.3359 10.835 61.3436C10.2664 62.7809 9.92752 64.2988 9.83085 65.8415C9.7942 66.4384 9.78808 67.0367 9.81249 67.6342Z" fill="#F0F0F0"/>
<path d="M13.7788 77.6021H14.0203C14.0967 77.4783 14.1792 77.3575 14.2618 77.2383C14.3932 77.0534 14.5287 76.8725 14.6683 76.6958C14.7891 76.5429 14.9098 76.3916 15.0305 76.2403C15.1558 76.0829 15.2796 75.9255 15.4004 75.7635L15.2583 75.6076C15.2353 75.6381 15.2124 75.6687 15.1879 75.6993C14.7967 76.2143 14.3734 76.7095 14.0111 77.2383C13.9301 77.3575 13.8522 77.4783 13.7788 77.6021Z" fill="white"/>
<path d="M17.0557 54.7731C17.016 54.8235 16.9747 54.8755 16.9365 54.9274C16.6385 55.3141 16.3568 55.713 16.0913 56.1241C15.6186 56.8495 15.1988 57.608 14.8351 58.3937C14.806 58.4548 14.777 58.5175 14.7495 58.5802C13.9711 60.297 13.4638 62.1242 13.2456 63.9966C13.2425 64.0149 13.241 64.0317 13.2395 64.0501C13.189 64.4872 13.1564 64.9258 13.1417 65.366C13.0929 66.1949 13.1749 67.0263 13.3847 67.8297C13.4152 67.9351 13.4489 68.039 13.4855 68.1399C13.5775 68.3871 13.6926 68.6251 13.8294 68.8506C13.9277 69.0152 14.037 69.173 14.1565 69.3229C14.2283 69.4146 14.3032 69.5047 14.3827 69.5918C14.4285 69.6423 14.4759 69.6927 14.5233 69.7431C14.563 69.7814 14.6012 69.8211 14.641 69.8593C15.0536 70.2597 15.5091 70.6311 15.882 71.0728L15.8071 71.3036C15.4479 70.8481 14.9848 70.4706 14.5676 70.0733C14.3057 69.827 14.0672 69.5568 13.8554 69.2663C13.8279 69.2266 13.7988 69.1868 13.7729 69.1456C13.6313 68.9387 13.509 68.7192 13.4076 68.4899C13.3556 68.3753 13.3083 68.2576 13.2655 68.1353C13.0158 67.3451 12.9021 66.5183 12.9292 65.69C12.9341 65.1594 12.9658 64.6294 13.024 64.102C13.0301 64.0333 13.0377 63.966 13.0469 63.8972C13.2019 62.6419 13.4846 61.4057 13.8905 60.2078C14.4044 58.6881 15.1112 57.2407 15.9935 55.901C16.2457 55.5174 16.5132 55.1429 16.7959 54.7776C16.8326 54.7272 16.8708 54.6783 16.9105 54.6279C16.9915 54.5239 17.1367 54.6691 17.0557 54.7731Z" fill="white"/>
<path d="M13.1194 64.1214C12.4763 64.0069 11.8949 63.6676 11.4789 63.164C11.0629 62.6604 10.8394 62.0254 10.8484 61.3722C10.849 61.3456 10.8599 61.3202 10.8789 61.3015C10.8978 61.2828 10.9233 61.2721 10.9499 61.2718C10.9766 61.2715 11.0023 61.2815 11.0217 61.2998C11.0411 61.318 11.0526 61.3431 11.0539 61.3697C11.0444 61.9779 11.2526 62.5695 11.6409 63.0376C12.0292 63.5058 12.5721 63.8197 13.1716 63.9227C13.3019 63.9452 13.2489 64.1438 13.1194 64.1214Z" fill="white"/>
<path d="M14.3305 69.6284C15.4323 68.8741 16.2093 67.7322 16.5066 66.4304C16.5359 66.3014 16.7346 66.3538 16.7053 66.4826C16.3934 67.8367 15.5824 69.0233 14.4341 69.8058C14.3246 69.8803 14.2216 69.7025 14.3305 69.6284Z" fill="white"/>
<path d="M14.7741 58.3715C15.0137 58.4677 15.2734 58.5028 15.5299 58.4737C15.7865 58.4447 16.0318 58.3524 16.2438 58.2051C16.3523 58.1292 16.4552 58.3071 16.3474 58.3825C16.1124 58.5441 15.8413 58.6457 15.558 58.6784C15.2746 58.7112 14.9876 58.674 14.7219 58.5702C14.6961 58.5625 14.6741 58.5453 14.6605 58.522C14.6469 58.4987 14.6427 58.4711 14.6487 58.4448C14.6557 58.4185 14.6728 58.3961 14.6963 58.3824C14.7198 58.3686 14.7478 58.3648 14.7741 58.3715Z" fill="white"/>
<path d="M28.4398 74.4596L29.999 74.4595L30.7408 68.4453H28.4395L28.4398 74.4596Z" fill="#FFB8B8"/>
<path d="M27.9119 73.6904L30.3767 73.5432V74.5993L32.7201 76.2177C32.8359 76.2976 32.923 76.4125 32.9689 76.5454C33.0148 76.6784 33.0169 76.8226 32.9751 76.9569C32.9332 77.0911 32.8495 77.2085 32.7362 77.2919C32.6229 77.3752 32.4859 77.4202 32.3453 77.4202H29.4108L28.905 76.3756L28.7075 77.4202H27.6011L27.9119 73.6904Z" fill="#2F2E41"/>
<path d="M13.7026 73.6838L15.2265 74.0143L17.2264 68.294L14.9774 67.8063L13.7026 73.6838Z" fill="#FFB8B8"/>
<path d="M13.3498 72.8202L15.7898 73.1989L15.566 74.231L17.513 76.3094C17.6091 76.4121 17.67 76.5428 17.6866 76.6824C17.7032 76.8221 17.6748 76.9634 17.6054 77.0858C17.536 77.2082 17.4294 77.3051 17.301 77.3626C17.1726 77.42 17.0292 77.4349 16.8917 77.4051L14.0239 76.783L13.7511 75.6549L13.3366 76.6339L12.2554 76.3993L13.3498 72.8202Z" fill="#2F2E41"/>
<path d="M2.72119 77.4202C2.72112 77.4441 2.72578 77.4678 2.73489 77.4899C2.74401 77.512 2.7574 77.532 2.7743 77.549C2.79121 77.5659 2.81129 77.5793 2.83339 77.5884C2.85549 77.5975 2.87917 77.6021 2.90307 77.6021H45.7409C45.7891 77.6021 45.8354 77.5829 45.8695 77.5488C45.9036 77.5147 45.9228 77.4684 45.9228 77.4202C45.9228 77.3719 45.9036 77.3257 45.8695 77.2916C45.8354 77.2575 45.7891 77.2383 45.7409 77.2383H2.90307C2.87917 77.2382 2.85549 77.2429 2.83339 77.252C2.81129 77.2611 2.79121 77.2745 2.77431 77.2914C2.7574 77.3083 2.74401 77.3284 2.73489 77.3505C2.72578 77.3726 2.72112 77.3963 2.72119 77.4202Z" fill="#CCCCCC"/>
<path d="M33.2717 47.5942C32.1774 53.6082 31.9038 56.2049 31.9038 56.2049C31.9038 56.2049 32.7245 57.1616 32.1774 57.7087C31.6302 58.2559 32.1774 59.3486 32.1774 59.3486L30.745 70.7865L30.4394 72.4677L27.571 72.0629L27.994 70.4808L27.2576 59.4862C27.2576 59.4862 26.7105 58.3919 26.9841 58.1183C27.2576 57.8448 26.7105 56.2049 26.7105 56.2049L26.0273 43.2201L21.7892 57.4352C21.7892 57.4352 22.2004 57.9823 21.7892 58.3919C21.3797 58.8015 20.5605 60.8525 20.5605 60.8525L17.4485 69.1053L16.8372 70.328L16.5119 70.1739L15.0814 69.9049L14.8185 69.856L14.3508 69.7673L14.0497 69.7108L13.9473 69.6925L13.4521 69.5992L13.6019 68.9344L14.6975 67.2713L15.8119 59.1148L15.8608 58.8963L15.9128 58.6655C15.9128 58.6655 15.6392 57.9823 16.0488 57.5712C16.1686 57.4459 16.2561 57.2933 16.3038 57.1266C16.3515 56.9599 16.3578 56.7841 16.3224 56.6144C16.3089 56.6002 16.2967 56.5848 16.2857 56.5686C16.2373 56.5022 16.2039 56.4261 16.1879 56.3455C16.1512 56.1743 16.1833 55.9343 16.4599 55.6577C16.5378 55.5749 16.6032 55.4812 16.654 55.3796C17.0697 54.5925 17.2791 52.925 17.2791 52.925C17.2791 52.925 17.649 39.7187 18.8594 37.7013C18.9236 37.5958 20.2086 35.5713 20.2758 35.53C21.6422 34.7108 32.3059 35.6895 32.3059 35.6895C32.3059 35.6895 32.9507 37.4216 32.9797 37.6019C33.1372 38.6152 34.1994 42.4926 33.2717 47.5942Z" fill="#2F2E41"/>
<path d="M44.3373 18.2329C44.3133 18.4228 44.248 18.6051 44.1459 18.767C44.0438 18.9289 43.9075 19.0665 43.7465 19.17C43.5855 19.2735 43.4038 19.3405 43.2141 19.3661C43.0245 19.3918 42.8315 19.3756 42.6487 19.3186L39.8843 23.0608L39.0518 20.791L41.8045 17.5854C41.9206 17.2847 42.1429 17.0371 42.4293 16.8895C42.7157 16.7418 43.0464 16.7043 43.3586 16.7841C43.6708 16.864 43.9428 17.0555 44.1232 17.3226C44.3036 17.5896 44.3798 17.9135 44.3373 18.2329Z" fill="#FFB8B8"/>
<path d="M19.1132 34.0841C18.8598 34.0841 18.7158 34.0344 18.6601 33.9279C18.5783 33.7714 18.7202 33.5671 18.8845 33.3304C19.0065 33.1759 19.1026 33.0026 19.1693 32.8174C19.2676 32.4243 19.9309 22.494 19.5342 20.5098C19.4424 20.0507 19.5214 19.4622 19.7689 18.7607C20.4451 16.8449 21.3681 16.2561 23.2068 15.0833C23.3561 14.9881 23.5115 14.8886 23.6731 14.785C23.8821 14.6506 23.8705 14.2053 23.8581 13.7336C23.8445 13.2095 23.8303 12.6674 24.0871 12.3286L24.1038 12.3065L24.1307 12.3002C24.7519 12.1566 26.8409 11.8901 28.078 12.3022L28.0951 12.308L28.1079 12.3207C28.4017 12.6145 28.4285 13.1838 28.4544 13.7342C28.4756 14.1862 28.4957 14.6129 28.662 14.7982C29.9331 16.2151 31.3747 16.1875 31.3893 16.1872L31.4607 16.1851L31.4678 16.2561C32.0207 21.8801 32.9121 30.3685 33.1015 30.7025C33.1114 30.7178 33.1169 30.7355 33.1174 30.7537C33.118 30.7719 33.1136 30.7899 33.1046 30.8058C32.8265 31.3254 20.0684 34.0841 19.1132 34.0841Z" fill="#0CD4B5"/>
<path d="M27.416 10.7083C29.4981 10.7083 31.186 9.02039 31.186 6.93827C31.186 4.85615 29.4981 3.16826 27.416 3.16826C25.3339 3.16826 23.646 4.85615 23.646 6.93827C23.646 9.02039 25.3339 10.7083 27.416 10.7083Z" fill="#FFB8B8"/>
<path d="M29.9349 13.8297C29.7562 13.5745 28.8498 10.457 28.4527 9.50011C28.412 9.70575 27.9566 10.5031 27.9459 10.7152L27.942 10.7938L27.8639 10.804C27.7466 10.8189 24.9738 11.1555 23.5307 9.51924C22.6758 8.55002 22.4819 7.09624 22.9537 5.19743C22.8679 5.18059 22.7857 5.14892 22.7107 5.10384C22.5859 5.01748 22.4815 4.90493 22.4047 4.77406C22.3279 4.64318 22.2805 4.49712 22.266 4.34607L22.1861 4.36749C21.7792 4.47725 21.3203 4.6225 21.0238 4.95777C20.6938 5.33064 20.635 5.83726 20.5727 6.37358C20.5484 6.62963 20.5081 6.88389 20.4518 7.13485C20.2508 7.94595 19.6847 8.70566 18.7695 9.39292C17.8481 10.0849 16.9086 10.4807 15.9772 10.5693C14.8771 10.6742 13.8161 10.3128 13.1401 9.60317C12.3862 8.81202 12.189 7.59478 12.671 6.70894L12.7486 6.56626L12.8339 6.70452C13.263 7.40099 14.2007 7.77716 15.1144 7.61904C15.8978 7.48354 16.6744 6.98611 17.3012 6.2184C17.8734 5.51762 18.268 4.68997 18.6497 3.88953C19.0379 3.07568 19.4393 2.23406 20.0174 1.51995C20.6696 0.714459 21.4835 0.188433 22.3092 0.038589C22.9105 -0.0700759 23.4471 0.0531101 23.7815 0.37726C24.0178 0.620835 24.1578 0.94184 24.1754 1.28075C24.3811 1.23479 24.5955 1.24711 24.7946 1.31632C24.9866 1.39443 25.1538 1.52302 25.2787 1.68848C25.4035 1.85393 25.4812 2.05008 25.5036 2.25612C26.7152 1.61886 28.3186 1.72256 29.1479 2.20069C29.4952 2.40091 29.6945 2.65308 29.7299 2.93438C30.7095 2.98908 31.763 3.94322 31.763 5.29506V5.38919H31.6688C30.8936 5.38919 30.1858 5.83505 29.7755 6.5818C29.5347 7.01699 29.4154 7.50903 29.4304 8.00621C29.4454 8.5034 29.594 8.98737 29.8607 9.40727C30.1509 9.85265 30.349 10.3516 30.4435 10.8747C30.5379 11.3979 30.5266 11.9346 30.4104 12.4534L30.0567 14.0034L29.9349 13.8297Z" fill="#2F2E41"/>
<path d="M34.2624 27.9291L31.7773 26.5312C27.4437 23.5275 26.3763 21.1422 26.2428 19.6694C26.1005 18.0979 26.9377 17.2384 26.9734 17.2027L26.9928 17.1885L29.233 16.0439C29.5175 15.8985 29.8297 15.8153 30.1489 15.7997C30.468 15.7842 30.7869 15.8366 31.0842 15.9536C31.3816 16.0706 31.6507 16.2495 31.8736 16.4784C32.0966 16.7072 32.2684 16.9809 32.3776 17.2812L34.4498 22.9801L36.7471 21.2856L37.7269 20.8995L38.5175 19.8424L40.6888 18.576L42.3018 20.0277L40.2733 24.0847L39.1463 24.3717L38.9072 24.9874L38.886 25.001L34.2624 27.9291Z" fill="#0CD4B5"/>
</g>
<defs>
<clipPath id="clip0_58_325">
<rect width="120" height="77.6021" fill="white"/>
</clipPath>
</defs>
</svg>
